<svg xmlns="http://www.w3.org/2000/svg" viewBox="0 0 128 128">
  <defs>
    <linearGradient id="g" x1="0" x2="1" y1="0" y2="1">
      <stop offset="0" stop-color="#67b8c9"/>
      <stop offset="1" stop-color="#d6b46a"/>
    </linearGradient>
  </defs>
  <rect x="8" y="8" width="112" height="112" rx="24" fill="#0b1220" stroke="rgba(255,255,255,.18)"/>
  <path d="M64 22c10 10 16 22 16 34 0 8-3 15-8 20 9 2 16 7 20 16-10-3-18-3-28 2v-12c-5 0-10-2-14-5v17c-10-5-18-5-28-2 4-9 11-14 20-16-5-5-8-12-8-20 0-12 6-24 16-34 5 6 9 12 12 18 3-6 7-12 12-18z" fill="url(#g)"/>
  <circle cx="64" cy="58" r="6" fill="#0b1220" opacity=".7"/>
</svg>
